<svg xmlns="http://www.w3.org/2000/svg" width="15.009" height="11.257" viewBox="0 0 15.009 11.257">
  <path id="envelope" d="M13.6,64H1.407A1.407,1.407,0,0,0,0,65.407V73.85a1.407,1.407,0,0,0,1.407,1.407H13.6a1.407,1.407,0,0,0,1.407-1.407V65.407A1.407,1.407,0,0,0,13.6,64Zm0,1.407v1.2c-.657.535-1.705,1.368-3.945,3.122-.494.388-1.472,1.321-2.152,1.31-.68.011-1.659-.922-2.152-1.31-2.24-1.754-3.288-2.586-3.945-3.122v-1.2ZM1.407,73.85V68.409c.672.535,1.624,1.286,3.076,2.423.641.5,1.763,1.618,3.021,1.611s2.36-1.09,3.021-1.611c1.452-1.137,2.4-1.888,3.076-2.423V73.85Z" transform="translate(0 -64)" fill="#acacac"/>
</svg>
